<?xml version="1.0" encoding="UTF-8"?>
<svg xmlns="http://www.w3.org/2000/svg" xmlns:xlink="http://www.w3.org/1999/xlink" width="504pt" height="504pt" viewBox="0 0 504 504">
<defs>
<g>
<g id="glyph-0-0">
<path d="M 0.960938 0 L 0.960938 -8.589844 L 2.097656 -8.589844 L 2.097656 -5.0625 L 6.5625 -5.0625 L 6.5625 -8.589844 L 7.699219 -8.589844 L 7.699219 0 L 6.5625 0 L 6.5625 -4.046875 L 2.097656 -4.046875 L 2.097656 0 Z M 0.960938 0 "/>
</g>
<g id="glyph-0-1">
<path d="M 3.109375 0 L 3.109375 -7.578125 L 0.28125 -7.578125 L 0.28125 -8.589844 L 7.089844 -8.589844 L 7.089844 -7.578125 L 4.25 -7.578125 L 4.25 0 Z M 3.109375 0 "/>
</g>
<g id="glyph-0-2">
</g>
<g id="glyph-0-3">
<path d="M 2.519531 0 L 0.152344 -6.222656 L 1.265625 -6.222656 L 2.601562 -2.496094 C 2.746094 -2.089844 2.878906 -1.671875 3 -1.242188 C 3.09375 -1.570312 3.222656 -1.964844 3.390625 -2.425781 L 4.773438 -6.222656 L 5.859375 -6.222656 L 3.503906 0 Z M 2.519531 0 "/>
</g>
<g id="glyph-0-4">
<path d="M 0.367188 -1.859375 L 1.414062 -2.023438 C 1.46875 -1.601562 1.632812 -1.28125 1.902344 -1.058594 C 2.167969 -0.835938 2.542969 -0.726562 3.023438 -0.726562 C 3.507812 -0.726562 3.867188 -0.824219 4.101562 -1.023438 C 4.335938 -1.21875 4.453125 -1.449219 4.453125 -1.71875 C 4.453125 -1.953125 4.347656 -2.140625 4.140625 -2.28125 C 3.996094 -2.371094 3.636719 -2.492188 3.0625 -2.636719 C 2.289062 -2.832031 1.753906 -3 1.457031 -3.144531 C 1.15625 -3.285156 0.929688 -3.480469 0.777344 -3.734375 C 0.621094 -3.984375 0.542969 -4.265625 0.546875 -4.570312 C 0.542969 -4.84375 0.605469 -5.097656 0.734375 -5.339844 C 0.859375 -5.574219 1.035156 -5.773438 1.253906 -5.929688 C 1.417969 -6.046875 1.640625 -6.148438 1.925781 -6.234375 C 2.207031 -6.320312 2.511719 -6.363281 2.835938 -6.363281 C 3.324219 -6.363281 3.75 -6.292969 4.121094 -6.152344 C 4.488281 -6.011719 4.761719 -5.820312 4.9375 -5.578125 C 5.113281 -5.335938 5.234375 -5.015625 5.304688 -4.617188 L 4.273438 -4.476562 C 4.222656 -4.796875 4.085938 -5.046875 3.863281 -5.226562 C 3.636719 -5.40625 3.320312 -5.496094 2.914062 -5.496094 C 2.425781 -5.496094 2.082031 -5.414062 1.875 -5.253906 C 1.664062 -5.09375 1.558594 -4.90625 1.5625 -4.695312 C 1.558594 -4.554688 1.601562 -4.433594 1.695312 -4.324219 C 1.773438 -4.210938 1.910156 -4.117188 2.097656 -4.042969 C 2.203125 -4.003906 2.511719 -3.914062 3.03125 -3.773438 C 3.773438 -3.574219 4.292969 -3.410156 4.589844 -3.285156 C 4.878906 -3.15625 5.113281 -2.972656 5.285156 -2.730469 C 5.453125 -2.488281 5.535156 -2.1875 5.539062 -1.828125 C 5.535156 -1.476562 5.433594 -1.144531 5.230469 -0.832031 C 5.023438 -0.519531 4.726562 -0.277344 4.339844 -0.113281 C 3.953125 0.0585938 3.515625 0.140625 3.03125 0.140625 C 2.21875 0.140625 1.601562 -0.0273438 1.179688 -0.363281 C 0.753906 -0.699219 0.484375 -1.195312 0.367188 -1.859375 Z M 0.367188 -1.859375 "/>
</g>
<g id="glyph-0-5">
<path d="M 7.4375 -0.921875 C 7.960938 -0.554688 8.449219 -0.289062 8.894531 -0.125 L 8.5625 0.667969 C 7.9375 0.445312 7.324219 0.09375 6.714844 -0.386719 C 6.074219 -0.03125 5.371094 0.144531 4.605469 0.148438 C 3.824219 0.144531 3.117188 -0.0390625 2.488281 -0.414062 C 1.851562 -0.785156 1.363281 -1.3125 1.027344 -1.996094 C 0.683594 -2.671875 0.515625 -3.4375 0.515625 -4.296875 C 0.515625 -5.140625 0.6875 -5.914062 1.03125 -6.609375 C 1.375 -7.304688 1.863281 -7.832031 2.5 -8.195312 C 3.132812 -8.558594 3.84375 -8.742188 4.628906 -8.742188 C 5.421875 -8.742188 6.136719 -8.550781 6.773438 -8.175781 C 7.40625 -7.792969 7.890625 -7.265625 8.226562 -6.59375 C 8.5625 -5.914062 8.730469 -5.152344 8.730469 -4.300781 C 8.730469 -3.59375 8.621094 -2.957031 8.40625 -2.394531 C 8.191406 -1.828125 7.867188 -1.335938 7.4375 -0.921875 Z M 4.933594 -2.375 C 5.589844 -2.1875 6.128906 -1.914062 6.554688 -1.554688 C 7.222656 -2.160156 7.558594 -3.078125 7.558594 -4.300781 C 7.558594 -4.996094 7.4375 -5.601562 7.203125 -6.121094 C 6.964844 -6.640625 6.621094 -7.042969 6.167969 -7.332031 C 5.710938 -7.617188 5.199219 -7.761719 4.632812 -7.765625 C 3.785156 -7.761719 3.082031 -7.472656 2.523438 -6.894531 C 1.964844 -6.3125 1.6875 -5.445312 1.6875 -4.296875 C 1.6875 -3.171875 1.960938 -2.316406 2.515625 -1.722656 C 3.0625 -1.125 3.769531 -0.824219 4.632812 -0.828125 C 5.035156 -0.824219 5.417969 -0.902344 5.78125 -1.054688 C 5.425781 -1.28125 5.050781 -1.445312 4.65625 -1.546875 Z M 4.933594 -2.375 "/>
</g>
<g id="glyph-0-6">
<path d="M 0.878906 0 L 0.878906 -8.589844 L 4.101562 -8.589844 C 4.757812 -8.589844 5.28125 -8.5 5.679688 -8.328125 C 6.070312 -8.152344 6.382812 -7.886719 6.609375 -7.527344 C 6.835938 -7.164062 6.949219 -6.785156 6.949219 -6.390625 C 6.949219 -6.023438 6.847656 -5.679688 6.648438 -5.355469 C 6.449219 -5.027344 6.148438 -4.765625 5.75 -4.570312 C 6.265625 -4.417969 6.664062 -4.15625 6.945312 -3.792969 C 7.222656 -3.421875 7.363281 -2.988281 7.367188 -2.492188 C 7.363281 -2.085938 7.277344 -1.710938 7.109375 -1.367188 C 6.9375 -1.019531 6.730469 -0.753906 6.480469 -0.570312 C 6.230469 -0.378906 5.914062 -0.238281 5.539062 -0.144531 C 5.160156 -0.046875 4.699219 0 4.15625 0 Z M 2.015625 -4.980469 L 3.875 -4.980469 C 4.375 -4.980469 4.738281 -5.011719 4.957031 -5.078125 C 5.246094 -5.164062 5.460938 -5.308594 5.609375 -5.507812 C 5.75 -5.703125 5.824219 -5.953125 5.828125 -6.257812 C 5.824219 -6.542969 5.757812 -6.792969 5.625 -7.011719 C 5.488281 -7.226562 5.292969 -7.375 5.039062 -7.457031 C 4.78125 -7.535156 4.34375 -7.574219 3.734375 -7.578125 L 2.015625 -7.578125 Z M 2.015625 -1.015625 L 4.15625 -1.015625 C 4.515625 -1.011719 4.773438 -1.027344 4.929688 -1.054688 C 5.1875 -1.101562 5.40625 -1.179688 5.582031 -1.289062 C 5.757812 -1.398438 5.902344 -1.554688 6.015625 -1.765625 C 6.128906 -1.96875 6.1875 -2.210938 6.1875 -2.492188 C 6.1875 -2.804688 6.105469 -3.082031 5.941406 -3.324219 C 5.777344 -3.558594 5.546875 -3.726562 5.257812 -3.824219 C 4.960938 -3.917969 4.542969 -3.964844 4 -3.96875 L 2.015625 -3.96875 Z M 2.015625 -1.015625 "/>
</g>
<g id="glyph-0-7">
<path d="M 0.925781 0 L 0.925781 -8.589844 L 4.164062 -8.589844 C 4.734375 -8.589844 5.171875 -8.5625 5.472656 -8.507812 C 5.894531 -8.4375 6.246094 -8.300781 6.53125 -8.105469 C 6.816406 -7.90625 7.046875 -7.632812 7.222656 -7.277344 C 7.394531 -6.917969 7.480469 -6.527344 7.484375 -6.105469 C 7.480469 -5.371094 7.25 -4.75 6.785156 -4.25 C 6.316406 -3.742188 5.476562 -3.492188 4.265625 -3.492188 L 2.0625 -3.492188 L 2.0625 0 Z M 2.0625 -4.507812 L 4.28125 -4.507812 C 5.011719 -4.503906 5.535156 -4.640625 5.847656 -4.917969 C 6.15625 -5.1875 6.308594 -5.574219 6.3125 -6.070312 C 6.308594 -6.429688 6.21875 -6.734375 6.039062 -6.992188 C 5.855469 -7.242188 5.617188 -7.414062 5.320312 -7.5 C 5.125 -7.550781 4.769531 -7.574219 4.257812 -7.578125 L 2.0625 -7.578125 Z M 2.0625 -4.507812 "/>
</g>
<g id="glyph-0-8">
<path d="M 0.5 -4.234375 C 0.496094 -5.246094 0.601562 -6.0625 0.8125 -6.6875 C 1.019531 -7.304688 1.328125 -7.785156 1.742188 -8.121094 C 2.148438 -8.457031 2.667969 -8.625 3.296875 -8.625 C 3.757812 -8.625 4.164062 -8.53125 4.511719 -8.347656 C 4.855469 -8.160156 5.140625 -7.890625 5.371094 -7.542969 C 5.59375 -7.191406 5.773438 -6.765625 5.90625 -6.265625 C 6.035156 -5.761719 6.097656 -5.085938 6.101562 -4.234375 C 6.097656 -3.226562 5.996094 -2.414062 5.789062 -1.796875 C 5.578125 -1.175781 5.265625 -0.695312 4.859375 -0.359375 C 4.445312 -0.0195312 3.925781 0.144531 3.296875 0.148438 C 2.464844 0.144531 1.816406 -0.148438 1.347656 -0.742188 C 0.78125 -1.457031 0.496094 -2.621094 0.5 -4.234375 Z M 1.582031 -4.234375 C 1.582031 -2.824219 1.746094 -1.886719 2.074219 -1.417969 C 2.402344 -0.949219 2.808594 -0.714844 3.296875 -0.71875 C 3.777344 -0.714844 4.183594 -0.949219 4.519531 -1.421875 C 4.847656 -1.886719 5.015625 -2.824219 5.015625 -4.234375 C 5.015625 -5.648438 4.847656 -6.589844 4.519531 -7.054688 C 4.183594 -7.515625 3.773438 -7.746094 3.289062 -7.75 C 2.800781 -7.746094 2.414062 -7.542969 2.125 -7.136719 C 1.761719 -6.613281 1.582031 -5.644531 1.582031 -4.234375 Z M 1.582031 -4.234375 "/>
</g>
<g id="glyph-0-9">
<path d="M 1.089844 0 L 1.089844 -1.203125 L 2.289062 -1.203125 L 2.289062 0 Z M 1.089844 0 "/>
</g>
<g id="glyph-0-10">
<path d="M 0.5 -2.25 L 1.605469 -2.34375 C 1.683594 -1.804688 1.871094 -1.398438 2.175781 -1.125 C 2.472656 -0.851562 2.835938 -0.714844 3.257812 -0.71875 C 3.765625 -0.714844 4.195312 -0.90625 4.546875 -1.292969 C 4.898438 -1.671875 5.074219 -2.179688 5.074219 -2.820312 C 5.074219 -3.414062 4.902344 -3.890625 4.566406 -4.242188 C 4.226562 -4.589844 3.785156 -4.761719 3.242188 -4.765625 C 2.898438 -4.761719 2.59375 -4.683594 2.320312 -4.53125 C 2.046875 -4.375 1.832031 -4.175781 1.675781 -3.929688 L 0.6875 -4.0625 L 1.515625 -8.472656 L 5.789062 -8.472656 L 5.789062 -7.464844 L 2.359375 -7.464844 L 1.898438 -5.15625 C 2.414062 -5.515625 2.953125 -5.695312 3.523438 -5.695312 C 4.269531 -5.695312 4.902344 -5.433594 5.421875 -4.914062 C 5.933594 -4.394531 6.191406 -3.726562 6.195312 -2.914062 C 6.191406 -2.132812 5.964844 -1.460938 5.515625 -0.898438 C 4.960938 -0.199219 4.210938 0.144531 3.257812 0.148438 C 2.476562 0.144531 1.835938 -0.0703125 1.34375 -0.507812 C 0.84375 -0.941406 0.5625 -1.523438 0.5 -2.25 Z M 0.5 -2.25 "/>
</g>
<g id="glyph-0-11">
<path d="M 4.46875 0 L 3.414062 0 L 3.414062 -6.71875 C 3.160156 -6.476562 2.828125 -6.234375 2.414062 -5.996094 C 2 -5.75 1.628906 -5.570312 1.304688 -5.449219 L 1.304688 -6.46875 C 1.894531 -6.742188 2.410156 -7.078125 2.851562 -7.476562 C 3.292969 -7.871094 3.605469 -8.253906 3.789062 -8.625 L 4.46875 -8.625 Z M 4.46875 0 "/>
</g>
<g id="glyph-0-12">
<path d="M 6.039062 -1.015625 L 6.039062 0 L 0.363281 0 C 0.355469 -0.253906 0.394531 -0.496094 0.484375 -0.734375 C 0.628906 -1.117188 0.859375 -1.5 1.179688 -1.875 C 1.492188 -2.25 1.953125 -2.683594 2.5625 -3.175781 C 3.492188 -3.941406 4.125 -4.546875 4.453125 -4.992188 C 4.78125 -5.4375 4.945312 -5.859375 4.945312 -6.265625 C 4.945312 -6.679688 4.792969 -7.03125 4.496094 -7.320312 C 4.191406 -7.601562 3.804688 -7.746094 3.328125 -7.75 C 2.820312 -7.746094 2.414062 -7.59375 2.109375 -7.292969 C 1.804688 -6.984375 1.648438 -6.5625 1.648438 -6.03125 L 0.5625 -6.140625 C 0.632812 -6.945312 0.910156 -7.558594 1.398438 -7.988281 C 1.878906 -8.410156 2.53125 -8.625 3.351562 -8.625 C 4.171875 -8.625 4.824219 -8.394531 5.308594 -7.9375 C 5.789062 -7.480469 6.027344 -6.914062 6.03125 -6.242188 C 6.027344 -5.894531 5.957031 -5.558594 5.820312 -5.226562 C 5.675781 -4.890625 5.441406 -4.539062 5.117188 -4.175781 C 4.789062 -3.804688 4.25 -3.300781 3.492188 -2.664062 C 2.859375 -2.128906 2.453125 -1.769531 2.273438 -1.582031 C 2.09375 -1.394531 1.945312 -1.203125 1.828125 -1.015625 Z M 6.039062 -1.015625 "/>
</g>
<g id="glyph-1-0">
<path d="M 0 -0.878906 L -8.589844 -0.878906 L -8.589844 -4.101562 C -8.589844 -4.757812 -8.5 -5.28125 -8.328125 -5.679688 C -8.152344 -6.074219 -7.886719 -6.386719 -7.527344 -6.613281 C -7.164062 -6.835938 -6.785156 -6.949219 -6.390625 -6.949219 C -6.023438 -6.949219 -5.679688 -6.847656 -5.355469 -6.648438 C -5.027344 -6.449219 -4.765625 -6.148438 -4.570312 -5.75 C -4.417969 -6.265625 -4.15625 -6.664062 -3.789062 -6.945312 C -3.417969 -7.222656 -2.984375 -7.363281 -2.488281 -7.367188 C -2.085938 -7.363281 -1.710938 -7.277344 -1.367188 -7.109375 C -1.015625 -6.9375 -0.75 -6.730469 -0.566406 -6.480469 C -0.375 -6.230469 -0.234375 -5.914062 -0.140625 -5.539062 C -0.046875 -5.160156 0 -4.699219 0 -4.15625 Z M -4.980469 -2.015625 L -4.980469 -3.875 C -4.980469 -4.375 -5.011719 -4.738281 -5.078125 -4.957031 C -5.164062 -5.246094 -5.308594 -5.460938 -5.507812 -5.609375 C -5.703125 -5.75 -5.953125 -5.824219 -6.257812 -5.828125 C -6.542969 -5.824219 -6.792969 -5.757812 -7.011719 -5.625 C -7.226562 -5.488281 -7.375 -5.292969 -7.457031 -5.039062 C -7.535156 -4.785156 -7.574219 -4.347656 -7.578125 -3.734375 L -7.578125 -2.015625 Z M -1.011719 -2.015625 L -1.011719 -4.15625 C -1.007812 -4.515625 -1.023438 -4.773438 -1.054688 -4.929688 C -1.101562 -5.1875 -1.179688 -5.40625 -1.289062 -5.582031 C -1.398438 -5.757812 -1.554688 -5.902344 -1.765625 -6.015625 C -1.96875 -6.128906 -2.210938 -6.1875 -2.488281 -6.1875 C -2.804688 -6.1875 -3.082031 -6.105469 -3.324219 -5.941406 C -3.558594 -5.777344 -3.726562 -5.546875 -3.820312 -5.257812 C -3.914062 -4.960938 -3.960938 -4.542969 -3.964844 -4 L -3.96875 -2.015625 Z M -1.011719 -2.015625 "/>
</g>
<g id="glyph-1-1">
<path d="M 0 -0.925781 L -8.589844 -0.925781 L -8.589844 -4.167969 C -8.589844 -4.734375 -8.5625 -5.171875 -8.507812 -5.472656 C -8.4375 -5.894531 -8.300781 -6.246094 -8.105469 -6.53125 C -7.90625 -6.816406 -7.632812 -7.046875 -7.277344 -7.222656 C -6.917969 -7.394531 -6.527344 -7.480469 -6.105469 -7.484375 C -5.371094 -7.480469 -4.75 -7.25 -4.25 -6.785156 C -3.742188 -6.316406 -3.492188 -5.476562 -3.492188 -4.265625 L -3.492188 -2.0625 L 0 -2.0625 Z M -4.507812 -2.0625 L -4.507812 -4.28125 C -4.503906 -5.011719 -4.640625 -5.535156 -4.917969 -5.847656 C -5.1875 -6.15625 -5.574219 -6.308594 -6.070312 -6.3125 C -6.429688 -6.308594 -6.734375 -6.21875 -6.992188 -6.039062 C -7.242188 -5.855469 -7.414062 -5.617188 -7.5 -5.320312 C -7.550781 -5.128906 -7.574219 -4.773438 -7.578125 -4.261719 L -7.578125 -2.0625 Z M -4.507812 -2.0625 "/>
</g>
<g id="glyph-1-2">
<path d="M 0 -3.109375 L -7.578125 -3.113281 L -7.578125 -0.28125 L -8.589844 -0.28125 L -8.589844 -7.089844 L -7.578125 -7.089844 L -7.578125 -4.25 L 0 -4.25 Z M 0 -3.109375 "/>
</g>
<g id="glyph-1-3">
</g>
<g id="glyph-1-4">
<path d="M 0 -2.519531 L -6.222656 -0.152344 L -6.222656 -1.265625 L -2.496094 -2.601562 C -2.089844 -2.746094 -1.671875 -2.878906 -1.242188 -3 C -1.570312 -3.09375 -1.964844 -3.222656 -2.425781 -3.390625 L -6.222656 -4.773438 L -6.222656 -5.859375 L 0 -3.503906 Z M 0 -2.519531 "/>
</g>
<g id="glyph-1-5">
<path d="M -1.859375 -0.371094 L -2.023438 -1.414062 C -1.601562 -1.46875 -1.28125 -1.632812 -1.058594 -1.902344 C -0.835938 -2.167969 -0.726562 -2.542969 -0.726562 -3.023438 C -0.726562 -3.507812 -0.824219 -3.867188 -1.019531 -4.101562 C -1.214844 -4.335938 -1.445312 -4.453125 -1.714844 -4.453125 C -1.953125 -4.453125 -2.140625 -4.347656 -2.277344 -4.140625 C -2.367188 -3.996094 -2.488281 -3.636719 -2.636719 -3.0625 C -2.832031 -2.289062 -3 -1.753906 -3.144531 -1.457031 C -3.285156 -1.15625 -3.480469 -0.929688 -3.734375 -0.777344 C -3.984375 -0.621094 -4.265625 -0.542969 -4.570312 -0.546875 C -4.84375 -0.542969 -5.097656 -0.605469 -5.339844 -0.734375 C -5.574219 -0.859375 -5.773438 -1.035156 -5.929688 -1.253906 C -6.046875 -1.417969 -6.148438 -1.640625 -6.234375 -1.925781 C -6.320312 -2.207031 -6.363281 -2.511719 -6.363281 -2.835938 C -6.363281 -3.324219 -6.292969 -3.75 -6.152344 -4.121094 C -6.011719 -4.488281 -5.820312 -4.761719 -5.578125 -4.9375 C -5.335938 -5.113281 -5.015625 -5.234375 -4.617188 -5.304688 L -4.476562 -4.273438 C -4.796875 -4.222656 -5.046875 -4.085938 -5.226562 -3.863281 C -5.40625 -3.636719 -5.496094 -3.320312 -5.496094 -2.914062 C -5.496094 -2.425781 -5.414062 -2.082031 -5.253906 -1.875 C -5.09375 -1.667969 -4.90625 -1.5625 -4.695312 -1.566406 C -4.554688 -1.5625 -4.433594 -1.605469 -4.324219 -1.695312 C -4.210938 -1.777344 -4.117188 -1.914062 -4.042969 -2.097656 C -4.003906 -2.203125 -3.914062 -2.511719 -3.773438 -3.03125 C -3.570312 -3.773438 -3.40625 -4.292969 -3.28125 -4.589844 C -3.15625 -4.878906 -2.972656 -5.113281 -2.730469 -5.285156 C -2.488281 -5.453125 -2.1875 -5.535156 -1.828125 -5.539062 C -1.476562 -5.535156 -1.144531 -5.433594 -0.832031 -5.230469 C -0.519531 -5.023438 -0.277344 -4.726562 -0.113281 -4.339844 C 0.0585938 -3.953125 0.140625 -3.515625 0.140625 -3.03125 C 0.140625 -2.21875 -0.0273438 -1.601562 -0.363281 -1.179688 C -0.699219 -0.753906 -1.195312 -0.484375 -1.859375 -0.371094 Z M -1.859375 -0.371094 "/>
</g>
<g id="glyph-1-6">
<path d="M -0.917969 -7.4375 C -0.554688 -7.960938 -0.289062 -8.449219 -0.121094 -8.894531 L 0.667969 -8.5625 C 0.445312 -7.9375 0.09375 -7.324219 -0.386719 -6.714844 C -0.03125 -6.074219 0.144531 -5.371094 0.148438 -4.605469 C 0.144531 -3.824219 -0.0390625 -3.117188 -0.414062 -2.488281 C -0.785156 -1.851562 -1.3125 -1.363281 -1.996094 -1.027344 C -2.671875 -0.683594 -3.4375 -0.515625 -4.296875 -0.515625 C -5.140625 -0.515625 -5.914062 -0.6875 -6.609375 -1.03125 C -7.304688 -1.375 -7.832031 -1.863281 -8.195312 -2.5 C -8.558594 -3.132812 -8.742188 -3.84375 -8.742188 -4.628906 C -8.742188 -5.421875 -8.550781 -6.136719 -8.175781 -6.773438 C -7.792969 -7.410156 -7.265625 -7.894531 -6.59375 -8.230469 C -5.914062 -8.5625 -5.152344 -8.730469 -4.300781 -8.730469 C -3.589844 -8.730469 -2.953125 -8.621094 -2.390625 -8.40625 C -1.828125 -8.191406 -1.335938 -7.867188 -0.917969 -7.4375 Z M -2.371094 -4.933594 C -2.1875 -5.589844 -1.914062 -6.128906 -1.550781 -6.554688 C -2.15625 -7.222656 -3.074219 -7.558594 -4.300781 -7.558594 C -4.996094 -7.558594 -5.601562 -7.4375 -6.121094 -7.203125 C -6.640625 -6.964844 -7.042969 -6.621094 -7.332031 -6.167969 C -7.617188 -5.710938 -7.761719 -5.199219 -7.765625 -4.636719 C -7.761719 -3.785156 -7.472656 -3.082031 -6.894531 -2.523438 C -6.3125 -1.964844 -5.445312 -1.6875 -4.296875 -1.6875 C -3.171875 -1.6875 -2.3125 -1.960938 -1.71875 -2.515625 C -1.117188 -3.0625 -0.820312 -3.769531 -0.824219 -4.632812 C -0.820312 -5.035156 -0.898438 -5.417969 -1.054688 -5.78125 C -1.28125 -5.425781 -1.445312 -5.050781 -1.546875 -4.65625 Z M -2.371094 -4.933594 "/>
</g>
<g id="glyph-1-7">
<path d="M 0 -0.960938 L -8.589844 -0.960938 L -8.589844 -2.097656 L -5.0625 -2.097656 L -5.0625 -6.5625 L -8.589844 -6.5625 L -8.589844 -7.699219 L 0 -7.699219 L 0 -6.5625 L -4.046875 -6.5625 L -4.046875 -2.097656 L 0 -2.097656 Z M 0 -0.960938 "/>
</g>
</g>
<clipPath id="clip-0">
<path clip-rule="nonzero" d="M 88.273438 88.273438 L 471.730469 88.273438 L 471.730469 489.601562 L 88.273438 489.601562 Z M 88.273438 88.273438 "/>
</clipPath>
<clipPath id="clip-1">
<path clip-rule="nonzero" d="M 88.273438 355 L 217 355 L 217 489.601562 L 88.273438 489.601562 Z M 88.273438 355 "/>
</clipPath>
<clipPath id="clip-2">
<path clip-rule="nonzero" d="M 216 355 L 345 355 L 345 489.601562 L 216 489.601562 Z M 216 355 "/>
</clipPath>
<clipPath id="clip-3">
<path clip-rule="nonzero" d="M 344 355 L 471.730469 355 L 471.730469 489.601562 L 344 489.601562 Z M 344 355 "/>
</clipPath>
<clipPath id="clip-4">
<path clip-rule="nonzero" d="M 88.273438 221 L 217 221 L 217 356 L 88.273438 356 Z M 88.273438 221 "/>
</clipPath>
<clipPath id="clip-5">
<path clip-rule="nonzero" d="M 344 221 L 471.730469 221 L 471.730469 356 L 344 356 Z M 344 221 "/>
</clipPath>
<clipPath id="clip-6">
<path clip-rule="nonzero" d="M 88.273438 88.273438 L 217 88.273438 L 217 222 L 88.273438 222 Z M 88.273438 88.273438 "/>
</clipPath>
<clipPath id="clip-7">
<path clip-rule="nonzero" d="M 216 88.273438 L 345 88.273438 L 345 222 L 216 222 Z M 216 88.273438 "/>
</clipPath>
<clipPath id="clip-8">
<path clip-rule="nonzero" d="M 344 88.273438 L 471.730469 88.273438 L 471.730469 222 L 344 222 Z M 344 88.273438 "/>
</clipPath>
</defs>
<rect x="-50.4" y="-50.4" width="604.8" height="604.8" fill="rgb(100%, 100%, 100%)" fill-opacity="1"/>
<g clip-path="url(#clip-0)">
<path fill-rule="nonzero" fill="rgb(74.509804%, 74.509804%, 74.509804%)" fill-opacity="1" d="M 88.6875 489.167969 L 471.699219 489.167969 L 471.699219 88.308594 L 88.6875 88.308594 Z M 88.6875 489.167969 "/>
</g>
<g clip-path="url(#clip-1)">
<path fill-rule="nonzero" fill="rgb(100%, 100%, 62.352941%)" fill-opacity="1" d="M 88.6875 489.167969 L 216.359375 489.167969 L 216.359375 355.546875 L 88.6875 355.546875 Z M 88.6875 489.167969 "/>
</g>
<g clip-path="url(#clip-2)">
<path fill-rule="nonzero" fill="rgb(100%, 100%, 62.352941%)" fill-opacity="1" d="M 216.359375 489.167969 L 344.03125 489.167969 L 344.03125 355.546875 L 216.359375 355.546875 Z M 216.359375 489.167969 "/>
</g>
<g clip-path="url(#clip-3)">
<path fill-rule="nonzero" fill="rgb(100%, 100%, 62.352941%)" fill-opacity="1" d="M 344.027344 489.167969 L 471.699219 489.167969 L 471.699219 355.546875 L 344.027344 355.546875 Z M 344.027344 489.167969 "/>
</g>
<path fill-rule="nonzero" fill="rgb(80%, 80%, 49.803922%)" fill-opacity="1" d="M 126.859375 449.21875 L 178.1875 449.21875 L 178.1875 395.496094 L 126.859375 395.496094 Z M 126.859375 449.21875 "/>
<path fill-rule="nonzero" fill="rgb(80%, 80%, 49.803922%)" fill-opacity="1" d="M 254.527344 449.21875 L 305.855469 449.21875 L 305.855469 395.496094 L 254.527344 395.496094 Z M 254.527344 449.21875 "/>
<path fill-rule="nonzero" fill="rgb(80%, 80%, 49.803922%)" fill-opacity="1" d="M 362.886719 469.429688 L 452.84375 469.429688 L 452.84375 375.28125 L 362.886719 375.28125 Z M 362.886719 469.429688 "/>
<g clip-path="url(#clip-4)">
<path fill-rule="nonzero" fill="rgb(100%, 100%, 100%)" fill-opacity="1" d="M 88.6875 355.546875 L 216.359375 355.546875 L 216.359375 221.925781 L 88.6875 221.925781 Z M 88.6875 355.546875 "/>
</g>
<path fill-rule="nonzero" fill="rgb(100%, 100%, 100%)" fill-opacity="1" d="M 216.359375 355.546875 L 344.03125 355.546875 L 344.03125 221.925781 L 216.359375 221.925781 Z M 216.359375 355.546875 "/>
<g clip-path="url(#clip-5)">
<path fill-rule="nonzero" fill="rgb(100%, 100%, 100%)" fill-opacity="1" d="M 344.027344 355.546875 L 471.699219 355.546875 L 471.699219 221.925781 L 344.027344 221.925781 Z M 344.027344 355.546875 "/>
</g>
<path fill-rule="nonzero" fill="rgb(80%, 80%, 80%)" fill-opacity="1" d="M 147.964844 293.507812 L 157.085938 293.507812 L 157.085938 283.964844 L 147.964844 283.964844 Z M 147.964844 293.507812 "/>
<path fill-rule="nonzero" fill="rgb(80%, 80%, 80%)" fill-opacity="1" d="M 230.039062 341.230469 L 330.351562 341.230469 L 330.351562 236.242188 L 230.039062 236.242188 Z M 230.039062 341.230469 "/>
<path fill-rule="nonzero" fill="rgb(80%, 80%, 80%)" fill-opacity="1" d="M 403.304688 293.507812 L 412.425781 293.507812 L 412.425781 283.964844 L 403.304688 283.964844 Z M 403.304688 293.507812 "/>
<g clip-path="url(#clip-6)">
<path fill-rule="nonzero" fill="rgb(100%, 88.235294%, 0%)" fill-opacity="1" d="M 88.6875 221.925781 L 216.359375 221.925781 L 216.359375 88.304688 L 88.6875 88.304688 Z M 88.6875 221.925781 "/>
</g>
<g clip-path="url(#clip-7)">
<path fill-rule="nonzero" fill="rgb(100%, 88.235294%, 0%)" fill-opacity="1" d="M 216.359375 221.925781 L 344.03125 221.925781 L 344.03125 88.304688 L 216.359375 88.304688 Z M 216.359375 221.925781 "/>
</g>
<g clip-path="url(#clip-8)">
<path fill-rule="nonzero" fill="rgb(100%, 88.235294%, 0%)" fill-opacity="1" d="M 344.027344 221.925781 L 471.699219 221.925781 L 471.699219 88.304688 L 344.027344 88.304688 Z M 344.027344 221.925781 "/>
</g>
<path fill-rule="nonzero" fill="rgb(80%, 70.588235%, 0%)" fill-opacity="1" d="M 125.113281 183.804688 L 179.933594 183.804688 L 179.933594 126.429688 L 125.113281 126.429688 Z M 125.113281 183.804688 "/>
<path fill-rule="nonzero" fill="rgb(80%, 70.588235%, 0%)" fill-opacity="1" d="M 236.175781 201.183594 L 324.210938 201.183594 L 324.210938 109.046875 L 236.175781 109.046875 Z M 236.175781 201.183594 "/>
<path fill-rule="nonzero" fill="rgb(80%, 70.588235%, 0%)" fill-opacity="1" d="M 363.847656 201.183594 L 451.882812 201.183594 L 451.882812 109.046875 L 363.847656 109.046875 Z M 363.847656 201.183594 "/>
<g fill="rgb(0%, 0%, 0%)" fill-opacity="1">
<use xlink:href="#glyph-0-0" x="22.546875" y="426.652344"/>
<use xlink:href="#glyph-0-1" x="31.212891" y="426.652344"/>
<use xlink:href="#glyph-0-2" x="38.542969" y="426.652344"/>
<use xlink:href="#glyph-0-3" x="41.876953" y="426.652344"/>
<use xlink:href="#glyph-0-4" x="47.876953" y="426.652344"/>
<use xlink:href="#glyph-0-2" x="53.876953" y="426.652344"/>
<use xlink:href="#glyph-0-5" x="57.210938" y="426.652344"/>
<use xlink:href="#glyph-0-1" x="66.544922" y="426.652344"/>
</g>
<g fill="rgb(0%, 0%, 0%)" fill-opacity="1">
<use xlink:href="#glyph-0-6" x="7.867188" y="293.03125"/>
<use xlink:href="#glyph-0-7" x="15.871094" y="293.03125"/>
<use xlink:href="#glyph-0-1" x="23.875" y="293.03125"/>
<use xlink:href="#glyph-0-6" x="31.205078" y="293.03125"/>
<use xlink:href="#glyph-0-2" x="39.208984" y="293.03125"/>
<use xlink:href="#glyph-0-3" x="42.542969" y="293.03125"/>
<use xlink:href="#glyph-0-4" x="48.542969" y="293.03125"/>
<use xlink:href="#glyph-0-2" x="54.542969" y="293.03125"/>
<use xlink:href="#glyph-0-0" x="57.876953" y="293.03125"/>
<use xlink:href="#glyph-0-1" x="66.542969" y="293.03125"/>
</g>
<g fill="rgb(0%, 0%, 0%)" fill-opacity="1">
<use xlink:href="#glyph-0-6" x="7.203125" y="159.410156"/>
<use xlink:href="#glyph-0-7" x="15.207031" y="159.410156"/>
<use xlink:href="#glyph-0-1" x="23.210938" y="159.410156"/>
<use xlink:href="#glyph-0-6" x="30.541016" y="159.410156"/>
<use xlink:href="#glyph-0-2" x="38.544922" y="159.410156"/>
<use xlink:href="#glyph-0-3" x="41.878906" y="159.410156"/>
<use xlink:href="#glyph-0-4" x="47.878906" y="159.410156"/>
<use xlink:href="#glyph-0-2" x="53.878906" y="159.410156"/>
<use xlink:href="#glyph-0-5" x="57.212891" y="159.410156"/>
<use xlink:href="#glyph-0-1" x="66.546875" y="159.410156"/>
</g>
<g fill="rgb(0%, 0%, 0%)" fill-opacity="1">
<use xlink:href="#glyph-1-0" x="156.816406" y="73.875"/>
<use xlink:href="#glyph-1-1" x="156.816406" y="65.871094"/>
<use xlink:href="#glyph-1-2" x="156.816406" y="57.867187"/>
<use xlink:href="#glyph-1-0" x="156.816406" y="50.537109"/>
<use xlink:href="#glyph-1-3" x="156.816406" y="42.533203"/>
<use xlink:href="#glyph-1-4" x="156.816406" y="39.199219"/>
<use xlink:href="#glyph-1-5" x="156.816406" y="33.199219"/>
<use xlink:href="#glyph-1-3" x="156.816406" y="27.199219"/>
<use xlink:href="#glyph-1-6" x="156.816406" y="23.865234"/>
<use xlink:href="#glyph-1-2" x="156.816406" y="14.53125"/>
</g>
<g fill="rgb(0%, 0%, 0%)" fill-opacity="1">
<use xlink:href="#glyph-1-0" x="284.488281" y="73.875"/>
<use xlink:href="#glyph-1-1" x="284.488281" y="65.871094"/>
<use xlink:href="#glyph-1-2" x="284.488281" y="57.867188"/>
<use xlink:href="#glyph-1-0" x="284.488281" y="50.537109"/>
<use xlink:href="#glyph-1-3" x="284.488281" y="42.533203"/>
<use xlink:href="#glyph-1-4" x="284.488281" y="39.199219"/>
<use xlink:href="#glyph-1-5" x="284.488281" y="33.199219"/>
<use xlink:href="#glyph-1-3" x="284.488281" y="27.199219"/>
<use xlink:href="#glyph-1-7" x="284.488281" y="23.865234"/>
<use xlink:href="#glyph-1-2" x="284.488281" y="15.199219"/>
</g>
<g fill="rgb(0%, 0%, 0%)" fill-opacity="1">
<use xlink:href="#glyph-1-7" x="412.160156" y="73.875"/>
<use xlink:href="#glyph-1-2" x="412.160156" y="65.208984"/>
<use xlink:href="#glyph-1-3" x="412.160156" y="57.878906"/>
<use xlink:href="#glyph-1-4" x="412.160156" y="54.544922"/>
<use xlink:href="#glyph-1-5" x="412.160156" y="48.544922"/>
<use xlink:href="#glyph-1-3" x="412.160156" y="42.544922"/>
<use xlink:href="#glyph-1-6" x="412.160156" y="39.210938"/>
<use xlink:href="#glyph-1-2" x="412.160156" y="29.876953"/>
</g>
<path fill-rule="nonzero" fill="rgb(100%, 100%, 100%)" fill-opacity="1" stroke-width="0.75" stroke-linecap="round" stroke-linejoin="round" stroke="rgb(100%, 100%, 100%)" stroke-opacity="1" stroke-miterlimit="10" d="M 472.113281 489.601562 L 472.113281 479.566406 L 479.78125 479.566406 L 479.78125 489.601562 Z M 472.113281 489.601562 "/>
<path fill-rule="nonzero" fill="rgb(100%, 100%, 98.039216%)" fill-opacity="1" stroke-width="0.75" stroke-linecap="round" stroke-linejoin="round" stroke="rgb(100%, 100%, 98.039216%)" stroke-opacity="1" stroke-miterlimit="10" d="M 472.113281 479.566406 L 472.113281 469.535156 L 479.78125 469.535156 L 479.78125 479.566406 Z M 472.113281 479.566406 "/>
<path fill-rule="nonzero" fill="rgb(100%, 100%, 94.509804%)" fill-opacity="1" stroke-width="0.75" stroke-linecap="round" stroke-linejoin="round" stroke="rgb(100%, 100%, 94.509804%)" stroke-opacity="1" stroke-miterlimit="10" d="M 472.113281 469.535156 L 472.113281 459.5 L 479.78125 459.5 L 479.78125 469.535156 Z M 472.113281 469.535156 "/>
<path fill-rule="nonzero" fill="rgb(100%, 100%, 90.980392%)" fill-opacity="1" stroke-width="0.75" stroke-linecap="round" stroke-linejoin="round" stroke="rgb(100%, 100%, 90.980392%)" stroke-opacity="1" stroke-miterlimit="10" d="M 472.113281 459.5 L 472.113281 449.46875 L 479.78125 449.46875 L 479.78125 459.5 Z M 472.113281 459.5 "/>
<path fill-rule="nonzero" fill="rgb(100%, 100%, 87.45098%)" fill-opacity="1" stroke-width="0.75" stroke-linecap="round" stroke-linejoin="round" stroke="rgb(100%, 100%, 87.45098%)" stroke-opacity="1" stroke-miterlimit="10" d="M 472.113281 449.46875 L 472.113281 439.433594 L 479.78125 439.433594 L 479.78125 449.46875 Z M 472.113281 449.46875 "/>
<path fill-rule="nonzero" fill="rgb(100%, 100%, 83.921569%)" fill-opacity="1" stroke-width="0.75" stroke-linecap="round" stroke-linejoin="round" stroke="rgb(100%, 100%, 83.921569%)" stroke-opacity="1" stroke-miterlimit="10" d="M 472.113281 439.433594 L 472.113281 429.402344 L 479.78125 429.402344 L 479.78125 439.433594 Z M 472.113281 439.433594 "/>
<path fill-rule="nonzero" fill="rgb(100%, 100%, 80.392157%)" fill-opacity="1" stroke-width="0.75" stroke-linecap="round" stroke-linejoin="round" stroke="rgb(100%, 100%, 80.392157%)" stroke-opacity="1" stroke-miterlimit="10" d="M 472.113281 429.402344 L 472.113281 419.367188 L 479.78125 419.367188 L 479.78125 429.402344 Z M 472.113281 429.402344 "/>
<path fill-rule="nonzero" fill="rgb(100%, 100%, 76.862745%)" fill-opacity="1" stroke-width="0.75" stroke-linecap="round" stroke-linejoin="round" stroke="rgb(100%, 100%, 76.862745%)" stroke-opacity="1" stroke-miterlimit="10" d="M 472.113281 419.367188 L 472.113281 409.335938 L 479.78125 409.335938 L 479.78125 419.367188 Z M 472.113281 419.367188 "/>
<path fill-rule="nonzero" fill="rgb(100%, 100%, 73.333333%)" fill-opacity="1" stroke-width="0.75" stroke-linecap="round" stroke-linejoin="round" stroke="rgb(100%, 100%, 73.333333%)" stroke-opacity="1" stroke-miterlimit="10" d="M 472.113281 409.335938 L 472.113281 399.300781 L 479.78125 399.300781 L 479.78125 409.335938 Z M 472.113281 409.335938 "/>
<path fill-rule="nonzero" fill="rgb(100%, 100%, 69.803922%)" fill-opacity="1" stroke-width="0.75" stroke-linecap="round" stroke-linejoin="round" stroke="rgb(100%, 100%, 69.803922%)" stroke-opacity="1" stroke-miterlimit="10" d="M 472.113281 399.300781 L 472.113281 389.269531 L 479.78125 389.269531 L 479.78125 399.300781 Z M 472.113281 399.300781 "/>
<path fill-rule="nonzero" fill="rgb(100%, 100%, 65.882353%)" fill-opacity="1" stroke-width="0.75" stroke-linecap="round" stroke-linejoin="round" stroke="rgb(100%, 100%, 65.882353%)" stroke-opacity="1" stroke-miterlimit="10" d="M 472.113281 389.269531 L 472.113281 379.234375 L 479.78125 379.234375 L 479.78125 389.269531 Z M 472.113281 389.269531 "/>
<path fill-rule="nonzero" fill="rgb(100%, 100%, 62.352941%)" fill-opacity="1" stroke-width="0.75" stroke-linecap="round" stroke-linejoin="round" stroke="rgb(100%, 100%, 62.352941%)" stroke-opacity="1" stroke-miterlimit="10" d="M 472.113281 379.234375 L 472.113281 369.203125 L 479.78125 369.203125 L 479.78125 379.234375 Z M 472.113281 379.234375 "/>
<path fill-rule="nonzero" fill="rgb(100%, 100%, 58.823529%)" fill-opacity="1" stroke-width="0.75" stroke-linecap="round" stroke-linejoin="round" stroke="rgb(100%, 100%, 58.823529%)" stroke-opacity="1" stroke-miterlimit="10" d="M 472.113281 369.203125 L 472.113281 359.167969 L 479.78125 359.167969 L 479.78125 369.203125 Z M 472.113281 369.203125 "/>
<path fill-rule="nonzero" fill="rgb(100%, 100%, 55.294118%)" fill-opacity="1" stroke-width="0.75" stroke-linecap="round" stroke-linejoin="round" stroke="rgb(100%, 100%, 55.294118%)" stroke-opacity="1" stroke-miterlimit="10" d="M 472.113281 359.167969 L 472.113281 349.136719 L 479.78125 349.136719 L 479.78125 359.167969 Z M 472.113281 359.167969 "/>
<path fill-rule="nonzero" fill="rgb(100%, 100%, 51.764706%)" fill-opacity="1" stroke-width="0.75" stroke-linecap="round" stroke-linejoin="round" stroke="rgb(100%, 100%, 51.764706%)" stroke-opacity="1" stroke-miterlimit="10" d="M 472.113281 349.136719 L 472.113281 339.101562 L 479.78125 339.101562 L 479.78125 349.136719 Z M 472.113281 349.136719 "/>
<path fill-rule="nonzero" fill="rgb(100%, 100%, 48.235294%)" fill-opacity="1" stroke-width="0.75" stroke-linecap="round" stroke-linejoin="round" stroke="rgb(100%, 100%, 48.235294%)" stroke-opacity="1" stroke-miterlimit="10" d="M 472.113281 339.101562 L 472.113281 329.070312 L 479.78125 329.070312 L 479.78125 339.101562 Z M 472.113281 339.101562 "/>
<path fill-rule="nonzero" fill="rgb(100%, 100%, 44.705882%)" fill-opacity="1" stroke-width="0.75" stroke-linecap="round" stroke-linejoin="round" stroke="rgb(100%, 100%, 44.705882%)" stroke-opacity="1" stroke-miterlimit="10" d="M 472.113281 329.070312 L 472.113281 319.035156 L 479.78125 319.035156 L 479.78125 329.070312 Z M 472.113281 329.070312 "/>
<path fill-rule="nonzero" fill="rgb(100%, 100%, 41.176471%)" fill-opacity="1" stroke-width="0.75" stroke-linecap="round" stroke-linejoin="round" stroke="rgb(100%, 100%, 41.176471%)" stroke-opacity="1" stroke-miterlimit="10" d="M 472.113281 319.035156 L 472.113281 309.003906 L 479.78125 309.003906 L 479.78125 319.035156 Z M 472.113281 319.035156 "/>
<path fill-rule="nonzero" fill="rgb(100%, 100%, 37.647059%)" fill-opacity="1" stroke-width="0.75" stroke-linecap="round" stroke-linejoin="round" stroke="rgb(100%, 100%, 37.647059%)" stroke-opacity="1" stroke-miterlimit="10" d="M 472.113281 309.003906 L 472.113281 298.96875 L 479.78125 298.96875 L 479.78125 309.003906 Z M 472.113281 309.003906 "/>
<path fill-rule="nonzero" fill="rgb(100%, 100%, 34.117647%)" fill-opacity="1" stroke-width="0.75" stroke-linecap="round" stroke-linejoin="round" stroke="rgb(100%, 100%, 34.117647%)" stroke-opacity="1" stroke-miterlimit="10" d="M 472.113281 298.96875 L 472.113281 288.9375 L 479.78125 288.9375 L 479.78125 298.96875 Z M 472.113281 298.96875 "/>
<path fill-rule="nonzero" fill="rgb(100%, 100%, 30.196078%)" fill-opacity="1" stroke-width="0.75" stroke-linecap="round" stroke-linejoin="round" stroke="rgb(100%, 100%, 30.196078%)" stroke-opacity="1" stroke-miterlimit="10" d="M 472.113281 288.9375 L 472.113281 278.902344 L 479.78125 278.902344 L 479.78125 288.9375 Z M 472.113281 288.9375 "/>
<path fill-rule="nonzero" fill="rgb(100%, 100%, 26.666667%)" fill-opacity="1" stroke-width="0.75" stroke-linecap="round" stroke-linejoin="round" stroke="rgb(100%, 100%, 26.666667%)" stroke-opacity="1" stroke-miterlimit="10" d="M 472.113281 278.902344 L 472.113281 268.871094 L 479.78125 268.871094 L 479.78125 278.902344 Z M 472.113281 278.902344 "/>
<path fill-rule="nonzero" fill="rgb(100%, 100%, 23.137255%)" fill-opacity="1" stroke-width="0.75" stroke-linecap="round" stroke-linejoin="round" stroke="rgb(100%, 100%, 23.137255%)" stroke-opacity="1" stroke-miterlimit="10" d="M 472.113281 268.871094 L 472.113281 258.835938 L 479.78125 258.835938 L 479.78125 268.871094 Z M 472.113281 268.871094 "/>
<path fill-rule="nonzero" fill="rgb(100%, 100%, 19.607843%)" fill-opacity="1" stroke-width="0.75" stroke-linecap="round" stroke-linejoin="round" stroke="rgb(100%, 100%, 19.607843%)" stroke-opacity="1" stroke-miterlimit="10" d="M 472.113281 258.835938 L 472.113281 248.804688 L 479.78125 248.804688 L 479.78125 258.835938 Z M 472.113281 258.835938 "/>
<path fill-rule="nonzero" fill="rgb(100%, 100%, 16.078431%)" fill-opacity="1" stroke-width="0.75" stroke-linecap="round" stroke-linejoin="round" stroke="rgb(100%, 100%, 16.078431%)" stroke-opacity="1" stroke-miterlimit="10" d="M 472.113281 248.804688 L 472.113281 238.769531 L 479.78125 238.769531 L 479.78125 248.804688 Z M 472.113281 248.804688 "/>
<path fill-rule="nonzero" fill="rgb(100%, 100%, 12.54902%)" fill-opacity="1" stroke-width="0.75" stroke-linecap="round" stroke-linejoin="round" stroke="rgb(100%, 100%, 12.54902%)" stroke-opacity="1" stroke-miterlimit="10" d="M 472.113281 238.769531 L 472.113281 228.738281 L 479.78125 228.738281 L 479.78125 238.769531 Z M 472.113281 238.769531 "/>
<path fill-rule="nonzero" fill="rgb(100%, 100%, 9.019608%)" fill-opacity="1" stroke-width="0.75" stroke-linecap="round" stroke-linejoin="round" stroke="rgb(100%, 100%, 9.019608%)" stroke-opacity="1" stroke-miterlimit="10" d="M 472.113281 228.738281 L 472.113281 218.703125 L 479.78125 218.703125 L 479.78125 228.738281 Z M 472.113281 228.738281 "/>
<path fill-rule="nonzero" fill="rgb(100%, 100%, 5.490196%)" fill-opacity="1" stroke-width="0.75" stroke-linecap="round" stroke-linejoin="round" stroke="rgb(100%, 100%, 5.490196%)" stroke-opacity="1" stroke-miterlimit="10" d="M 472.113281 218.703125 L 472.113281 208.671875 L 479.78125 208.671875 L 479.78125 218.703125 Z M 472.113281 218.703125 "/>
<path fill-rule="nonzero" fill="rgb(100%, 100%, 1.960784%)" fill-opacity="1" stroke-width="0.75" stroke-linecap="round" stroke-linejoin="round" stroke="rgb(100%, 100%, 1.960784%)" stroke-opacity="1" stroke-miterlimit="10" d="M 472.113281 208.671875 L 472.113281 198.636719 L 479.78125 198.636719 L 479.78125 208.671875 Z M 472.113281 208.671875 "/>
<path fill-rule="nonzero" fill="rgb(100%, 100%, 0%)" fill-opacity="1" stroke-width="0.75" stroke-linecap="round" stroke-linejoin="round" stroke="rgb(100%, 100%, 0%)" stroke-opacity="1" stroke-miterlimit="10" d="M 472.113281 198.636719 L 472.113281 188.605469 L 479.78125 188.605469 L 479.78125 198.636719 Z M 472.113281 198.636719 "/>
<path fill-rule="nonzero" fill="rgb(100%, 98.823529%, 0%)" fill-opacity="1" stroke-width="0.75" stroke-linecap="round" stroke-linejoin="round" stroke="rgb(100%, 98.823529%, 0%)" stroke-opacity="1" stroke-miterlimit="10" d="M 472.113281 188.605469 L 472.113281 178.570312 L 479.78125 178.570312 L 479.78125 188.605469 Z M 472.113281 188.605469 "/>
<path fill-rule="nonzero" fill="rgb(100%, 97.647059%, 0%)" fill-opacity="1" stroke-width="0.75" stroke-linecap="round" stroke-linejoin="round" stroke="rgb(100%, 97.647059%, 0%)" stroke-opacity="1" stroke-miterlimit="10" d="M 472.113281 178.570312 L 472.113281 168.539062 L 479.78125 168.539062 L 479.78125 178.570312 Z M 472.113281 178.570312 "/>
<path fill-rule="nonzero" fill="rgb(100%, 96.470588%, 0%)" fill-opacity="1" stroke-width="0.75" stroke-linecap="round" stroke-linejoin="round" stroke="rgb(100%, 96.470588%, 0%)" stroke-opacity="1" stroke-miterlimit="10" d="M 472.113281 168.539062 L 472.113281 158.507812 L 479.78125 158.507812 L 479.78125 168.539062 Z M 472.113281 168.539062 "/>
<path fill-rule="nonzero" fill="rgb(100%, 95.294118%, 0%)" fill-opacity="1" stroke-width="0.75" stroke-linecap="round" stroke-linejoin="round" stroke="rgb(100%, 95.294118%, 0%)" stroke-opacity="1" stroke-miterlimit="10" d="M 472.113281 158.507812 L 472.113281 148.472656 L 479.78125 148.472656 L 479.78125 158.507812 Z M 472.113281 158.507812 "/>
<path fill-rule="nonzero" fill="rgb(100%, 94.117647%, 0%)" fill-opacity="1" stroke-width="0.75" stroke-linecap="round" stroke-linejoin="round" stroke="rgb(100%, 94.117647%, 0%)" stroke-opacity="1" stroke-miterlimit="10" d="M 472.113281 148.472656 L 472.113281 138.441406 L 479.78125 138.441406 L 479.78125 148.472656 Z M 472.113281 148.472656 "/>
<path fill-rule="nonzero" fill="rgb(100%, 92.941176%, 0%)" fill-opacity="1" stroke-width="0.75" stroke-linecap="round" stroke-linejoin="round" stroke="rgb(100%, 92.941176%, 0%)" stroke-opacity="1" stroke-miterlimit="10" d="M 472.113281 138.441406 L 472.113281 128.40625 L 479.78125 128.40625 L 479.78125 138.441406 Z M 472.113281 138.441406 "/>
<path fill-rule="nonzero" fill="rgb(100%, 91.764706%, 0%)" fill-opacity="1" stroke-width="0.75" stroke-linecap="round" stroke-linejoin="round" stroke="rgb(100%, 91.764706%, 0%)" stroke-opacity="1" stroke-miterlimit="10" d="M 472.113281 128.40625 L 472.113281 118.375 L 479.78125 118.375 L 479.78125 128.40625 Z M 472.113281 128.40625 "/>
<path fill-rule="nonzero" fill="rgb(100%, 90.588235%, 0%)" fill-opacity="1" stroke-width="0.75" stroke-linecap="round" stroke-linejoin="round" stroke="rgb(100%, 90.588235%, 0%)" stroke-opacity="1" stroke-miterlimit="10" d="M 472.113281 118.375 L 472.113281 108.339844 L 479.78125 108.339844 L 479.78125 118.375 Z M 472.113281 118.375 "/>
<path fill-rule="nonzero" fill="rgb(100%, 89.411765%, 0%)" fill-opacity="1" stroke-width="0.75" stroke-linecap="round" stroke-linejoin="round" stroke="rgb(100%, 89.411765%, 0%)" stroke-opacity="1" stroke-miterlimit="10" d="M 472.113281 108.339844 L 472.113281 98.308594 L 479.78125 98.308594 L 479.78125 108.339844 Z M 472.113281 108.339844 "/>
<path fill-rule="nonzero" fill="rgb(100%, 88.235294%, 0%)" fill-opacity="1" stroke-width="0.75" stroke-linecap="round" stroke-linejoin="round" stroke="rgb(100%, 88.235294%, 0%)" stroke-opacity="1" stroke-miterlimit="10" d="M 472.113281 98.308594 L 472.113281 88.273438 L 479.78125 88.273438 L 479.78125 98.308594 Z M 472.113281 98.308594 "/>
<g fill="rgb(0%, 0%, 0%)" fill-opacity="1">
<use xlink:href="#glyph-0-8" x="489.730469" y="437.132812"/>
<use xlink:href="#glyph-0-9" x="496.404297" y="437.132812"/>
<use xlink:href="#glyph-0-10" x="499.738281" y="437.132812"/>
</g>
<g fill="rgb(0%, 0%, 0%)" fill-opacity="1">
<use xlink:href="#glyph-0-11" x="489.730469" y="360.585938"/>
<use xlink:href="#glyph-0-9" x="496.404297" y="360.585938"/>
<use xlink:href="#glyph-0-8" x="499.738281" y="360.585938"/>
</g>
<g fill="rgb(0%, 0%, 0%)" fill-opacity="1">
<use xlink:href="#glyph-0-11" x="489.730469" y="284.039062"/>
<use xlink:href="#glyph-0-9" x="496.404297" y="284.039062"/>
<use xlink:href="#glyph-0-10" x="499.738281" y="284.039062"/>
</g>
<g fill="rgb(0%, 0%, 0%)" fill-opacity="1">
<use xlink:href="#glyph-0-12" x="489.730469" y="207.492188"/>
<use xlink:href="#glyph-0-9" x="496.404297" y="207.492188"/>
<use xlink:href="#glyph-0-8" x="499.738281" y="207.492188"/>
</g>
<g fill="rgb(0%, 0%, 0%)" fill-opacity="1">
<use xlink:href="#glyph-0-12" x="489.730469" y="130.945312"/>
<use xlink:href="#glyph-0-9" x="496.404297" y="130.945312"/>
<use xlink:href="#glyph-0-10" x="499.738281" y="130.945312"/>
</g>
<path fill="none" stroke-width="0.825" stroke-linecap="round" stroke-linejoin="round" stroke="rgb(0%, 0%, 0%)" stroke-opacity="1" stroke-miterlimit="10" d="M 88.273438 489.601562 L 471.730469 489.601562 L 471.730469 88.273438 L 88.273438 88.273438 Z M 88.273438 489.601562 "/>
</svg>
